<svg id="pag_1" data-name="pag 1" xmlns="http://www.w3.org/2000/svg" viewBox="0 0 1920 1080"><defs><style>.cls-1{fill:none;stroke:#ea5558;stroke-miterlimit:10;stroke-width:1.5px;}.cls-2{font-size:155px;font-family:Magisho;}.cls-2,.cls-3{fill:#e95658;}.cls-3{font-size:30px;font-family:Poppins-Bold, Poppins;font-weight:700;letter-spacing:0.07em;}.cls-4{fill:#e95758;}</style></defs><title>first</title><path class="cls-1" d="M444.82,518.34V259.41H589q24.45,0,41.36,4.31,25.53,6.46,39.38,27.82t13.84,55.08q0,42.72-25.17,66T587.59,436H550.91v82.35ZM548.39,317.67V370.9h17.27a18.83,18.83,0,0,0,15.1-6.79q5.75-6.78,5.75-18.58,0-13.21-5.93-20.54t-16.36-7.32H548.39Z"/><path class="cls-1" d="M694.76,390.68q0-61.5,38.3-98.36t102.31-36.86q64,0,102.49,37t38.48,98.18q0,61.14-38.48,98.17t-102.49,37q-63.66,0-102.13-37T694.76,390.68Zm140.61-65.1q-13.3,0-20.86,17.27T807,390.68q0,31.27,7.37,48.19t21,16.9q13.3,0,20.86-17.26t7.55-47.83q0-31.29-7.37-48.19T835.37,325.58Z"/><path class="cls-1" d="M999.35,518.34V259.41h148.89q31.27,0,42.79,2t23.38,9.5q25.89,16.14,25.89,57.73,0,23.69-11.15,37.66t-36.68,21.16q23.37,4,34.88,18.7,4.67,6.48,7.91,18l2.52,8.63,1.44,12.59,6.47,54.3a73.17,73.17,0,0,0,2,8.27q1.62,5.76,3.06,10.43H1144.64q-3.6-14.75-5.93-27a109.33,109.33,0,0,1-2.34-19.78l-1.44-13.66q-1.8-19.43-6.11-25.54-5-6.11-19.42-6.11h-6.48v92.06Zm101.06-199.23v44.95H1118q11.51,0,18.34-5.71t6.83-15.7q0-23.53-24.45-23.54h-18.34Z"/><path class="cls-1" d="M1253.24,327V259.41h233.39V327h-62.21V518.34h-109V327Z"/><path class="cls-1" d="M386.93,806V547.11H587.6v67.61H495.89v30.21H587.6v70.13H495.89v91Z"/><path class="cls-1" d="M599.1,678.37q0-61.49,38.3-98.35t102.31-36.86q64,0,102.49,37t38.48,98.17q0,61.14-38.48,98.18t-102.49,37q-63.66,0-102.13-37T599.1,678.37Zm140.61-65.09q-13.31,0-20.86,17.26t-7.55,47.83q0,31.29,7.37,48.19t21,16.91q13.31,0,20.86-17.27t7.55-47.83q0-31.27-7.37-48.19T739.71,613.28Z"/><path class="cls-1" d="M903.69,806V547.11h109V738.79H1108V806Z"/><path class="cls-1" d="M1122.34,806V547.11h109V806Z"/><path class="cls-1" d="M1254.31,678.37q0-61.49,38.3-98.35t102.32-36.86q64,0,102.49,37t38.48,98.17q0,61.14-38.48,98.18t-102.49,37q-63.66,0-102.14-37T1254.31,678.37Zm140.62-65.09q-13.32,0-20.86,17.26t-7.55,47.83q0,31.29,7.37,48.19t21,16.91q13.29,0,20.86-17.27t7.55-47.83q0-31.27-7.38-48.19T1394.93,613.28Z"/><text class="cls-2" transform="translate(724.94 586.95)">Design</text><text class="cls-3" transform="translate(1413.62 1000.64)">GRAPHIC &amp; UX/UI DESIGN</text><text class="cls-3" transform="translate(76.42 106.34)">GRAPHIC &amp; UX/UI DESIGN</text><text class="cls-3" transform="translate(99.19 582.71) rotate(-90)">2024</text><text class="cls-3" transform="translate(1819.84 499.58) rotate(90)">2024</text><path class="cls-4" d="M1842.94,122.09a29.2,29.2,0,0,0-27.26,28.5l-.25.25h0a29.21,29.21,0,0,0-27.26-28.75A29.21,29.21,0,0,0,1815.43,93a1.62,1.62,0,0,0,0-.22h0l.24.24A29.2,29.2,0,0,0,1842.94,122.09Z"/><path class="cls-4" d="M128.3,962.29A29.21,29.21,0,0,0,101,990.79l-.25.25h0a29.21,29.21,0,0,0-27.27-28.75,29.2,29.2,0,0,0,27.27-29.14v-.22h0l.25.25A29.2,29.2,0,0,0,128.3,962.29Z"/></svg>