<?xml version="1.0" encoding="utf-8"?>
<!-- Generator: Adobe Illustrator 23.0.3, SVG Export Plug-In . SVG Version: 6.00 Build 0)  -->
<svg version="1.1" id="Livello_1" xmlns="http://www.w3.org/2000/svg" xmlns:xlink="http://www.w3.org/1999/xlink" x="0px" y="0px"
	 viewBox="0 0 1920 1080" style="enable-background:new 0 0 1920 1080;" xml:space="preserve">
<style type="text/css">
	.st0{fill:#F6F6F6;}
	.st1{fill:none;stroke:#EA5558;stroke-width:1.7441;stroke-miterlimit:10;}
	.st2{fill:#E95658;}
	.st3{font-family:'Magisho';}
	.st4{font-size:180.2207px;}
	.st5{fill:#E95758;}
</style>
<rect y="1" class="st0" width="1922" height="1078"/>
<g>
	<path class="st1" d="M362.8,492.7V191.6h153h14.6c19,0,35,1.7,48.1,5c19.8,5,35.1,15.8,45.8,32.3c10.7,16.6,16.1,37.9,16.1,64
		c0,33.1-9.8,58.7-29.3,76.8c-19.5,18.1-47,27.1-82.4,27.1h-42.6v95.8H362.8z M483.2,259.4v61.9h9.6h10.5c7.2,0,13.1-2.6,17.6-7.9
		c4.5-5.3,6.7-12.5,6.7-21.6c0-10.2-2.3-18.2-6.9-23.9c-4.6-5.7-10.9-8.5-19-8.5h-7.5H483.2z"/>
	<path class="st1" d="M653.4,344.3c0-47.7,14.8-85.8,44.5-114.4c29.7-28.6,69.3-42.9,119-42.9c49.6,0,89.3,14.4,119.2,43.1
		c29.8,28.7,44.7,66.8,44.7,114.2c0,47.4-14.9,85.4-44.7,114.2c-29.8,28.7-69.6,43.1-119.2,43.1c-49.3,0-88.9-14.4-118.8-43.1
		C668.3,429.7,653.4,391.7,653.4,344.3z M816.9,268.6c-10.3,0-18.4,6.7-24.3,20.1c-5.9,13.4-8.8,31.9-8.8,55.6
		c0,24.3,2.9,42.9,8.6,56c5.7,13.1,13.9,19.7,24.5,19.7c10.3,0,18.4-6.7,24.3-20.1c5.9-13.4,8.8-31.9,8.8-55.6
		c0-24.3-2.9-42.9-8.6-56C835.6,275.1,827.4,268.6,816.9,268.6z"/>
	<path class="st1" d="M1007.5,492.7V191.6h162.2h10.9c24.3,0,40.8,0.8,49.8,2.3c8.9,1.5,18,5.2,27.2,11
		c20.1,12.5,30.1,34.9,30.1,67.1c0,18.4-4.3,32.9-13,43.8c-8.6,10.8-22.9,19-42.7,24.6c18.1,3.1,31.6,10.3,40.6,21.7
		c3.6,5,6.7,12,9.2,20.9l2.9,10l1.7,14.6l7.5,63.1c0.3,2,1,5.2,2.3,9.6c1.3,4.5,2.4,8.5,3.6,12.1h-123.4
		c-2.8-11.4-5.1-21.9-6.9-31.4c-1.8-9.5-2.7-17.1-2.7-23l-1.7-15.9c-1.4-15.1-3.8-24.9-7.1-29.7c-3.9-4.7-11.4-7.1-22.6-7.1h-7.5
		v107H1007.5z M1125,261.1v52.3h15.1h5.4c8.9,0,16-2.2,21.3-6.6c5.3-4.4,7.9-10.5,7.9-18.3c0-18.2-9.5-27.4-28.4-27.4h-9.2H1125z"/>
	<path class="st1" d="M1302.7,270.3v-78.6h271.4v78.6h-72.3v222.4h-126.7V270.3H1302.7z"/>
	<path class="st1" d="M295.4,827.2V526.2h233.3v78.6H422.1v35.1h106.6v81.5H422.1v105.8H295.4z"/>
	<path class="st1" d="M542.1,678.8c0-47.7,14.8-85.8,44.5-114.4c29.7-28.6,69.3-42.9,119-42.9c49.6,0,89.3,14.4,119.2,43.1
		c29.8,28.7,44.7,66.8,44.7,114.2c0,47.4-14.9,85.4-44.7,114.2C795,821.6,755.2,836,705.6,836c-49.3,0-88.9-14.4-118.8-43.1
		C557.1,764.2,542.1,726.2,542.1,678.8z M705.6,603.1c-10.3,0-18.4,6.7-24.3,20.1c-5.9,13.4-8.8,31.9-8.8,55.6
		c0,24.3,2.9,42.9,8.6,56c5.7,13.1,13.9,19.7,24.5,19.7c10.3,0,18.4-6.7,24.3-20.1s8.8-31.9,8.8-55.6c0-24.3-2.9-42.9-8.6-56
		C724.4,609.6,716.2,603.1,705.6,603.1z"/>
	<path class="st1" d="M896.3,827.2V526.2H1023V749h110.8v78.2H896.3z"/>
	<path class="st1" d="M1150.5,827.2V526.2h126.7v301.1H1150.5z"/>
	<path class="st1" d="M1304,678.8c0-47.7,14.8-85.8,44.5-114.4c29.7-28.6,69.3-42.9,119-42.9c49.6,0,89.3,14.4,119.2,43.1
		c29.8,28.7,44.7,66.8,44.7,114.2c0,47.4-14.9,85.4-44.7,114.2c-29.8,28.7-69.6,43.1-119.2,43.1c-49.3,0-88.9-14.4-118.8-43.1
		C1318.9,764.2,1304,726.2,1304,678.8z M1467.5,603.1c-10.3,0-18.4,6.7-24.3,20.1c-5.9,13.4-8.8,31.9-8.8,55.6
		c0,24.3,2.9,42.9,8.6,56c5.7,13.1,13.9,19.7,24.5,19.7c10.3,0,18.4-6.7,24.3-20.1c5.9-13.4,8.8-31.9,8.8-55.6
		c0-24.3-2.9-42.9-8.6-56C1486.2,609.6,1478.1,603.1,1467.5,603.1z"/>
</g>
<text transform="matrix(1 0 0 1 688.4653 572.4805)" class="st2 st3 st4">Design</text>
<g>
	<path class="st2" d="M1229.3,979c-0.6-1-1.4-1.9-2.5-2.4c-1.1-0.6-2.3-0.8-3.8-0.8c-2.5,0-4.5,0.8-6,2.5c-1.5,1.6-2.3,3.8-2.3,6.5
		c0,2.9,0.8,5.2,2.4,6.8c1.6,1.6,3.7,2.5,6.5,2.5c1.9,0,3.5-0.5,4.8-1.4s2.3-2.3,2.9-4.1h-9.8v-5.7h16.7v7.2
		c-0.6,1.9-1.5,3.7-2.9,5.4c-1.4,1.6-3.1,3-5.2,4s-4.5,1.5-7.1,1.5c-3.1,0-5.9-0.7-8.3-2c-2.4-1.4-4.4-3.3-5.7-5.7
		c-1.4-2.4-2-5.2-2-8.3s0.7-5.9,2-8.3c1.4-2.4,3.3-4.3,5.7-5.7c2.4-1.4,5.2-2,8.3-2c3.8,0,7,0.9,9.6,2.7c2.6,1.8,4.3,4.4,5.2,7.6
		H1229.3z"/>
	<path class="st2" d="M1262.1,1000.6l-6.6-11.9h-1.8v11.9h-7.7v-31.6h12.9c2.5,0,4.6,0.4,6.4,1.3c1.8,0.9,3.1,2.1,3.9,3.6
		c0.9,1.5,1.3,3.2,1.3,5.1c0,2.1-0.6,4-1.8,5.6c-1.2,1.6-2.9,2.8-5.2,3.5l7.3,12.5H1262.1z M1253.7,983.3h4.8c1.4,0,2.5-0.3,3.2-1
		c0.7-0.7,1.1-1.7,1.1-2.9c0-1.2-0.4-2.1-1.1-2.8c-0.7-0.7-1.8-1-3.2-1h-4.8V983.3z"/>
	<path class="st2" d="M1298.4,995.1h-11.8l-1.9,5.6h-8.1l11.4-31.6h8.9l11.4,31.6h-8.1L1298.4,995.1z M1296.4,989.1l-3.9-11.6
		l-3.9,11.6H1296.4z"/>
	<path class="st2" d="M1338.1,984.2c-0.8,1.5-2.1,2.7-3.9,3.7c-1.7,0.9-3.9,1.4-6.5,1.4h-4.8v11.3h-7.7v-31.6h12.5
		c2.5,0,4.6,0.4,6.4,1.3c1.7,0.9,3,2.1,3.9,3.6c0.9,1.5,1.3,3.3,1.3,5.3C1339.3,981.1,1338.9,982.7,1338.1,984.2z M1330.4,982.1
		c0.7-0.7,1.1-1.7,1.1-2.9s-0.4-2.2-1.1-2.9s-1.8-1-3.3-1h-4.2v7.9h4.2C1328.6,983.2,1329.7,982.8,1330.4,982.1z"/>
	<path class="st2" d="M1374.1,969.1v31.6h-7.7v-13h-12v13h-7.7v-31.6h7.7v12.4h12v-12.4H1374.1z"/>
	<path class="st2" d="M1390.7,969.1v31.6h-7.7v-31.6H1390.7z"/>
	<path class="st2" d="M1400.4,976.5c1.4-2.4,3.2-4.3,5.6-5.7s5.2-2,8.2-2c3.8,0,7,1,9.6,3c2.7,2,4.5,4.7,5.4,8.1h-8.5
		c-0.6-1.3-1.5-2.3-2.7-3c-1.2-0.7-2.5-1-3.9-1c-2.4,0-4.3,0.8-5.8,2.5c-1.5,1.7-2.2,3.9-2.2,6.6c0,2.8,0.7,5,2.2,6.6
		c1.5,1.6,3.4,2.5,5.8,2.5c1.5,0,2.8-0.3,3.9-1c1.2-0.7,2-1.7,2.7-3h8.5c-0.9,3.4-2.7,6.1-5.4,8.1c-2.7,2-5.9,2.9-9.6,2.9
		c-3.1,0-5.8-0.7-8.2-2s-4.3-3.3-5.6-5.7c-1.3-2.4-2-5.2-2-8.3S1399,978.9,1400.4,976.5z"/>
	<path class="st2" d="M1474.4,1000.6l-2.9-2.8c-2.9,2.2-6.4,3.3-10.4,3.3c-2.4,0-4.5-0.4-6.3-1.2c-1.8-0.8-3.2-1.9-4.2-3.4
		s-1.5-3.2-1.5-5.1c0-2,0.5-3.8,1.6-5.4c1.1-1.6,2.7-2.9,4.8-3.9c-0.8-1-1.3-1.9-1.7-2.8c-0.3-0.9-0.5-1.9-0.5-2.9
		c0-1.5,0.4-2.9,1.2-4.1s1.9-2.2,3.4-2.9c1.5-0.7,3.2-1.1,5.3-1.1c2.1,0,3.8,0.4,5.3,1.1c1.4,0.8,2.5,1.8,3.2,3s1,2.6,1,4.1h-7.2
		c0-0.8-0.2-1.4-0.6-1.9c-0.4-0.4-1-0.7-1.7-0.7c-0.7,0-1.3,0.2-1.8,0.6c-0.5,0.4-0.7,1-0.7,1.6c0,0.6,0.2,1.3,0.6,2
		c0.4,0.7,1,1.5,1.9,2.4l7.7,7.5c0.1-0.1,0.1-0.3,0.2-0.5c0.1-0.2,0.2-0.5,0.3-0.7l1.7-2.8h7.7l-2.2,3.9c-0.8,1.8-1.7,3.5-2.8,5
		l7.6,7.5H1474.4z M1466.7,993.2l-7-6.8c-2.2,1.1-3.2,2.6-3.2,4.5c0,1.1,0.4,2.1,1.3,2.9c0.9,0.8,2.1,1.1,3.6,1.1
		C1463.4,994.9,1465.2,994.4,1466.7,993.2z"/>
	<path class="st2" d="M1510,969.1V988c0,1.9,0.5,3.3,1.4,4.4c0.9,1,2.3,1.5,4.1,1.5s3.2-0.5,4.1-1.5c1-1,1.4-2.5,1.4-4.4v-18.9h7.7
		v18.9c0,2.8-0.6,5.2-1.8,7.2c-1.2,2-2.8,3.4-4.8,4.4s-4.3,1.5-6.8,1.5c-2.5,0-4.7-0.5-6.7-1.5c-2-1-3.5-2.4-4.7-4.4
		c-1.1-2-1.7-4.4-1.7-7.2v-18.9H1510z"/>
	<path class="st2" d="M1556.9,1000.6l-6.4-9.7l-5.7,9.7h-8.7l10.1-16.1l-10.3-15.5h9l6.3,9.5l5.6-9.5h8.7l-10,15.9l10.4,15.7H1556.9
		z"/>
	<path class="st2" d="M1590.2,957.9l-12.1,51.2h-7.4l12.1-51.2H1590.2z"/>
	<path class="st2" d="M1604.4,969.1V988c0,1.9,0.5,3.3,1.4,4.4c0.9,1,2.3,1.5,4.1,1.5s3.2-0.5,4.1-1.5c1-1,1.4-2.5,1.4-4.4v-18.9
		h7.7v18.9c0,2.8-0.6,5.2-1.8,7.2c-1.2,2-2.8,3.4-4.8,4.4s-4.3,1.5-6.8,1.5c-2.5,0-4.7-0.5-6.7-1.5c-2-1-3.5-2.4-4.7-4.4
		c-1.1-2-1.7-4.4-1.7-7.2v-18.9H1604.4z"/>
	<path class="st2" d="M1639.6,969.1v31.6h-7.7v-31.6H1639.6z"/>
	<path class="st2" d="M1682.1,971c2.5,1.3,4.4,3.2,5.8,5.6c1.4,2.4,2,5.1,2,8.3c0,3.1-0.7,5.8-2,8.2c-1.4,2.4-3.3,4.3-5.8,5.6
		c-2.5,1.3-5.4,2-8.7,2h-11.8v-31.6h11.8C1676.7,969.1,1679.6,969.7,1682.1,971z M1679.6,991.6c1.6-1.6,2.4-3.8,2.4-6.8
		c0-2.9-0.8-5.2-2.4-6.8s-3.9-2.4-6.8-2.4h-3.6V994h3.6C1675.7,994,1678,993.2,1679.6,991.6z"/>
	<path class="st2" d="M1705.3,975.2v6.4h10.3v5.9h-10.3v6.9h11.7v6.2h-19.3v-31.6h19.3v6.2H1705.3z"/>
	<path class="st2" d="M1730.5,999.8c-1.8-0.8-3.3-1.9-4.4-3.3s-1.7-3.2-1.7-5.3h8.2c0.1,1.2,0.5,2.1,1.2,2.7
		c0.7,0.6,1.6,0.9,2.7,0.9c1.1,0,2-0.3,2.7-0.8c0.7-0.5,1-1.3,1-2.2c0-0.8-0.3-1.4-0.8-1.9c-0.5-0.5-1.2-0.9-1.9-1.3
		c-0.8-0.3-1.9-0.7-3.3-1.1c-2-0.6-3.7-1.3-5-1.9c-1.3-0.6-2.4-1.6-3.3-2.8c-0.9-1.2-1.4-2.8-1.4-4.8c0-2.9,1.1-5.2,3.2-6.9
		c2.1-1.7,4.9-2.5,8.3-2.5c3.5,0,6.3,0.8,8.4,2.5c2.1,1.7,3.3,4,3.4,7h-8.3c-0.1-1-0.4-1.8-1.1-2.4s-1.6-0.9-2.7-0.9
		c-0.9,0-1.7,0.2-2.3,0.7c-0.6,0.5-0.9,1.2-0.9,2.1c0,1,0.5,1.8,1.4,2.4c1,0.6,2.5,1.2,4.5,1.8c2,0.7,3.7,1.3,5,2s2.4,1.5,3.3,2.7
		c0.9,1.2,1.4,2.7,1.4,4.6c0,1.8-0.5,3.4-1.4,4.9c-0.9,1.5-2.2,2.6-4,3.5c-1.7,0.9-3.8,1.3-6.2,1.3
		C1734.4,1001,1732.4,1000.6,1730.5,999.8z"/>
	<path class="st2" d="M1764.1,969.1v31.6h-7.7v-31.6H1764.1z"/>
	<path class="st2" d="M1794,979c-0.6-1-1.4-1.9-2.5-2.4c-1.1-0.6-2.3-0.8-3.8-0.8c-2.5,0-4.5,0.8-6,2.5c-1.5,1.6-2.3,3.8-2.3,6.5
		c0,2.9,0.8,5.2,2.4,6.8c1.6,1.6,3.7,2.5,6.5,2.5c1.9,0,3.5-0.5,4.8-1.4s2.3-2.3,2.9-4.1h-9.8v-5.7h16.7v7.2
		c-0.6,1.9-1.5,3.7-2.9,5.4c-1.4,1.6-3.1,3-5.2,4c-2.1,1-4.5,1.5-7.1,1.5c-3.1,0-5.9-0.7-8.3-2s-4.3-3.3-5.7-5.7
		c-1.4-2.4-2-5.2-2-8.3s0.7-5.9,2-8.3c1.4-2.4,3.3-4.3,5.7-5.7c2.4-1.4,5.2-2,8.3-2c3.8,0,7,0.9,9.6,2.7c2.6,1.8,4.3,4.4,5.2,7.6
		H1794z"/>
	<path class="st2" d="M1838.9,1000.6h-7.7l-12.9-19.5v19.5h-7.7v-31.6h7.7l12.9,19.6v-19.6h7.7V1000.6z"/>
</g>
<path class="st5" d="M1842.3,112.2c-20.7,1.3-37.1,18.3-37.5,39.2l-0.3,0.3l0,0c-0.3-21.1-16.8-38.2-37.5-39.6
	c21-1.4,37.5-18.8,37.5-40.1c0-0.1,0-0.2,0-0.3l0,0l0.3,0.3C1804.7,93.4,1821.3,110.8,1842.3,112.2z"/>
<path class="st5" d="M151.3,112.2c-20.7,1.3-37.1,18.3-37.5,39.2l-0.3,0.3l0,0c-0.3-21.1-16.8-38.2-37.5-39.6
	c21-1.4,37.5-18.8,37.5-40.1c0-0.1,0-0.2,0-0.3l0,0l0.3,0.3C113.7,93.4,130.3,110.8,151.3,112.2z"/>
<path class="st5" d="M155.9,959.4c-20.7,1.3-37.1,18.3-37.5,39.2l-0.3,0.3l0,0c-0.3-21.1-16.8-38.2-37.5-39.6
	c21-1.4,37.5-18.8,37.5-40.1c0-0.1,0-0.2,0-0.3l0,0l0.3,0.3C118.4,940.7,135,958.1,155.9,959.4z"/>
<g>
	<path class="st2" d="M97.6,587.5c-2.4-2.9-4.4-5.3-6-7c-1.6-1.7-3.2-3.1-4.9-4.3s-3.4-1.8-5-1.8c-1.2,0-2.2,0.3-2.9,0.9
		s-1,1.4-1,2.6c0,1.1,0.4,2,1.3,2.7c0.9,0.6,2.1,1,3.6,1v7.4c-2.5-0.1-4.7-0.6-6.4-1.6s-3-2.4-3.8-4.1c-0.8-1.7-1.2-3.6-1.2-5.6
		c0-3.6,0.9-6.3,2.7-8.1c1.8-1.8,4.2-2.7,7.2-2.7c3.2,0,6.2,1.1,8.9,3.3c2.7,2.2,5.4,5,8,8.4v-12.2h6.3v22.6h-5.7
		C97.9,587.9,97.5,587.4,97.6,587.5z"/>
	<path class="st2" d="M75.8,559.9c-3-2-4.5-5.2-4.5-9.7s1.5-7.7,4.5-9.7c3-2,7-3,12.2-3c5.2,0,9.3,1,12.3,3c3,2,4.5,5.2,4.5,9.7
		s-1.5,7.7-4.5,9.7s-7.1,3-12.3,3C82.8,562.9,78.8,561.9,75.8,559.9z M81,546.2c-1.6,0.7-2.5,2-2.5,4.1c0,2.1,0.8,3.4,2.5,4.1
		c1.6,0.7,4,1,7,1c2,0,3.7-0.1,5.1-0.4s2.4-0.7,3.2-1.5c0.8-0.7,1.2-1.8,1.2-3.3c0-1.4-0.4-2.5-1.2-3.3c-0.8-0.7-1.9-1.2-3.2-1.5
		c-1.3-0.2-3-0.4-5.1-0.4C85,545.2,82.6,545.5,81,546.2z"/>
	<path class="st2" d="M97.6,532.5c-2.4-2.9-4.4-5.3-6-7c-1.6-1.7-3.2-3.1-4.9-4.3s-3.4-1.8-5-1.8c-1.2,0-2.2,0.3-2.9,0.9
		s-1,1.4-1,2.6s0.4,2,1.3,2.7c0.9,0.6,2.1,1,3.6,1v7.4c-2.5-0.1-4.7-0.6-6.4-1.6c-1.7-1-3-2.4-3.8-4.1c-0.8-1.7-1.2-3.6-1.2-5.6
		c0-3.6,0.9-6.3,2.7-8.1c1.8-1.8,4.2-2.7,7.2-2.7c3.2,0,6.2,1.1,8.9,3.3c2.7,2.2,5.4,5,8,8.4v-12.2h6.3v22.6h-5.7
		C97.9,532.9,97.5,532.4,97.6,532.5z"/>
	<path class="st2" d="M99,507.7h-6.2l-20.3-14.2v-8.6h19.9v-3.7H99v3.7h5.8v7.7H99V507.7z M80.9,492.1l11.4,7.6v-7.6H80.9z"/>
</g>
<g>
	<path class="st2" d="M1818.3,495c2.4,2.9,4.4,5.3,6,7c1.6,1.7,3.2,3.1,4.9,4.3s3.4,1.8,5,1.8c1.2,0,2.2-0.3,2.9-0.9
		c0.7-0.6,1-1.4,1-2.6c0-1.1-0.4-2-1.3-2.7c-0.9-0.6-2.1-1-3.6-1v-7.4c2.5,0.1,4.7,0.6,6.4,1.6s3,2.4,3.8,4.1
		c0.8,1.7,1.2,3.6,1.2,5.6c0,3.6-0.9,6.3-2.7,8.1c-1.8,1.8-4.2,2.7-7.2,2.7c-3.2,0-6.2-1.1-8.9-3.3c-2.7-2.2-5.4-5-8-8.4v12.2h-6.3
		v-22.6h5.7C1818,494.6,1818.4,495.1,1818.3,495z"/>
	<path class="st2" d="M1840.1,522.5c3,2,4.5,5.2,4.5,9.7c0,4.4-1.5,7.7-4.5,9.7c-3,2-7,3-12.2,3c-5.2,0-9.3-1-12.3-3
		s-4.5-5.2-4.5-9.7c0-4.4,1.5-7.7,4.5-9.7c3-2,7.1-3,12.3-3C1833,519.5,1837.1,520.5,1840.1,522.5z M1834.9,536.3
		c1.6-0.7,2.5-2,2.5-4.1s-0.8-3.4-2.5-4.1c-1.6-0.7-4-1-7-1c-2,0-3.7,0.1-5.1,0.4s-2.4,0.7-3.2,1.5c-0.8,0.7-1.2,1.8-1.2,3.3
		c0,1.4,0.4,2.5,1.2,3.3c0.8,0.7,1.9,1.2,3.2,1.5s3,0.4,5.1,0.4C1830.9,537.3,1833.2,536.9,1834.9,536.3z"/>
	<path class="st2" d="M1818.3,550c2.4,2.9,4.4,5.3,6,7c1.6,1.7,3.2,3.1,4.9,4.3s3.4,1.8,5,1.8c1.2,0,2.2-0.3,2.9-0.9
		c0.7-0.6,1-1.4,1-2.6c0-1.1-0.4-2-1.3-2.7c-0.9-0.6-2.1-1-3.6-1v-7.4c2.5,0.1,4.7,0.6,6.4,1.6c1.7,1,3,2.4,3.8,4.1
		c0.8,1.7,1.2,3.6,1.2,5.6c0,3.6-0.9,6.3-2.7,8.1c-1.8,1.8-4.2,2.7-7.2,2.7c-3.2,0-6.2-1.1-8.9-3.3s-5.4-5-8-8.4v12.2h-6.3v-22.6
		h5.7C1818,549.6,1818.4,550.1,1818.3,550z"/>
	<path class="st2" d="M1816.9,574.8h6.2l20.3,14.2v8.6h-19.9v3.7h-6.7v-3.7h-5.8v-7.7h5.8V574.8z M1834.9,590.4l-11.4-7.6v7.6
		H1834.9z"/>
</g>
</svg>
